<mxfile host="app.diagrams.net" modified="2024-01-09T12:25:25.259Z" agent="Mozilla/5.0 (Windows NT 10.0; Win64; x64) AppleWebKit/537.36 (KHTML, like Gecko) Chrome/120.0.0.0 Safari/537.36 Edg/120.0.0.0" etag="VKXc8bYXFC32fcdyEmeO" version="22.1.17" type="github">
  <diagram name="Pagina-1" id="2T6PcZjTPlC-cT7J1004">
    <mxGraphModel dx="1339" dy="793" grid="1" gridSize="10" guides="1" tooltips="1" connect="1" arrows="1" fold="1" page="1" pageScale="1" pageWidth="827" pageHeight="1169" math="0" shadow="0">
      <root>
        <mxCell id="0" />
        <mxCell id="1" parent="0" />
        <mxCell id="rpj5mWmY2MEOA-zODFdt-9" value="" style="whiteSpace=wrap;html=1;aspect=fixed;" vertex="1" parent="1">
          <mxGeometry x="220" y="160" width="80" height="80" as="geometry" />
        </mxCell>
        <mxCell id="rpj5mWmY2MEOA-zODFdt-10" value="" style="whiteSpace=wrap;html=1;aspect=fixed;" vertex="1" parent="1">
          <mxGeometry x="300" y="160" width="80" height="80" as="geometry" />
        </mxCell>
        <mxCell id="rpj5mWmY2MEOA-zODFdt-11" value="" style="whiteSpace=wrap;html=1;aspect=fixed;" vertex="1" parent="1">
          <mxGeometry x="380" y="160" width="80" height="80" as="geometry" />
        </mxCell>
        <mxCell id="rpj5mWmY2MEOA-zODFdt-12" value="" style="whiteSpace=wrap;html=1;aspect=fixed;" vertex="1" parent="1">
          <mxGeometry x="220" y="240" width="80" height="80" as="geometry" />
        </mxCell>
        <mxCell id="rpj5mWmY2MEOA-zODFdt-13" value="" style="whiteSpace=wrap;html=1;aspect=fixed;" vertex="1" parent="1">
          <mxGeometry x="300" y="240" width="80" height="80" as="geometry" />
        </mxCell>
        <mxCell id="rpj5mWmY2MEOA-zODFdt-14" value="" style="whiteSpace=wrap;html=1;aspect=fixed;" vertex="1" parent="1">
          <mxGeometry x="380" y="240" width="80" height="80" as="geometry" />
        </mxCell>
        <mxCell id="rpj5mWmY2MEOA-zODFdt-15" value="" style="whiteSpace=wrap;html=1;aspect=fixed;" vertex="1" parent="1">
          <mxGeometry x="220" y="320" width="80" height="80" as="geometry" />
        </mxCell>
        <mxCell id="rpj5mWmY2MEOA-zODFdt-16" value="" style="whiteSpace=wrap;html=1;aspect=fixed;" vertex="1" parent="1">
          <mxGeometry x="300" y="320" width="80" height="80" as="geometry" />
        </mxCell>
        <mxCell id="rpj5mWmY2MEOA-zODFdt-17" value="" style="whiteSpace=wrap;html=1;aspect=fixed;" vertex="1" parent="1">
          <mxGeometry x="380" y="320" width="80" height="80" as="geometry" />
        </mxCell>
        <mxCell id="rpj5mWmY2MEOA-zODFdt-18" value="" style="shape=cross;whiteSpace=wrap;html=1;rotation=45;strokeWidth=0;fillColor=#000000;" vertex="1" parent="1">
          <mxGeometry x="92.5" y="165" width="70" height="70" as="geometry" />
        </mxCell>
        <mxCell id="rpj5mWmY2MEOA-zODFdt-20" value="" style="ellipse;whiteSpace=wrap;html=1;aspect=fixed;labelBorderColor=default;strokeWidth=13;" vertex="1" parent="1">
          <mxGeometry x="100" y="252.5" width="55" height="55" as="geometry" />
        </mxCell>
      </root>
    </mxGraphModel>
  </diagram>
</mxfile>
